<?xml version="1.0" encoding="utf-8"?>
<!-- Generator: Adobe Illustrator 25.0.1, SVG Export Plug-In . SVG Version: 6.00 Build 0)  -->
<svg version="1.1" id="Layer_1" xmlns="http://www.w3.org/2000/svg" xmlns:xlink="http://www.w3.org/1999/xlink" x="0px" y="0px"
	 viewBox="0 0 500 500" style="enable-background:new 0 0 500 500;" xml:space="preserve">
<style type="text/css">
	.st0{fill:#FFFFFF;}
	.st1{fill:#0071FF;}
</style>
<circle class="st0" cx="250" cy="250" r="250"/>
<g>
	<path class="st1" d="M182.4,138.9c-4.9,1.9-8.1,6.5-8.1,11.6V293c0,6.9,5.6,12.4,12.4,12.4c6.7,0,12.4-5.7,12.4-12.4V184l101.6,117
		c3.4,4.1,9.2,5.6,13.9,3.5c4.9-1.9,8.1-6.5,8.1-11.6L322,150.3c0.1-3.1-1-6.1-3.3-8.4c-2.3-2.4-5.6-3.8-9.1-3.8
		c-3.4,0-6.5,1.4-8.8,3.8c-2.3,2.3-3.5,5.5-3.5,8.8l0.6,108.8L196.5,142.5C192.9,138.3,187.2,136.8,182.4,138.9z"/>
	<path class="st1" d="M310.5,443.4H199.3v-36.1h110.8c6.9,0,12.4-5.6,12.4-12.4c0-6.7-5.7-12.4-12.4-12.4H186.9
		c-6.9,0-12.4,5.6-12.4,12.4v60.9c0,6.9,5.6,12.4,12.4,12.4h123.7c6.9,0,12.4-5.6,12.4-12.4C323,448.9,317.4,443.4,310.5,443.4z"/>
	<path class="st1" d="M310.2,331.5H187.8c-6.9,0-12.4,5.6-12.4,12.4s5.6,12.4,12.4,12.4h122.4c6.9,0,12.4-5.6,12.4-12.4
		C322.7,337.2,317,331.5,310.2,331.5z"/>
	<path class="st1" d="M423.7,155.8C405.8,109,370.8,72,325.1,51.7c-45.7-20.3-96.6-21.7-143.3-3.8C135,65.7,98,100.8,77.7,146.7
		C54.3,199,55.9,258.2,82.1,309.2c14.1,27.5,35,51.1,60.4,68.4c2.1,1.4,4.6,2.1,7.1,2.1c4.2,0,8-2,10.2-5.3c2-2.8,2.7-6.1,2-9.3
		c-0.7-3.4-2.5-6.2-5.3-8.1c-21.9-15-40-35.5-52.4-59.2c-22.8-44.2-24.3-95.6-4.1-141c18.1-39.7,50.4-70.1,90.7-85.6
		c40.6-15.6,84.6-14.5,124.1,3.3c39.6,17.6,69.9,49.7,85.4,90.3c15.4,40.5,14.2,84.7-3.4,124.5c-12.3,27.6-31.8,51-56.3,67.7
		c-2.5,1.8-4.4,4.7-5.1,7.9c-0.7,3.3,0.1,6.6,2,9.4c1.8,2.5,4.7,4.4,7.9,5.1c0.8,0.2,1.6,0.2,2.4,0.2c2.4,0,4.7-0.8,7-2.3
		c28.5-19.6,51-46.6,65-78C440.2,253.3,441.5,202.3,423.7,155.8z"/>
</g>
</svg>
