<?xml version="1.0" encoding="utf-8"?>
<!-- Generator: Adobe Illustrator 25.0.1, SVG Export Plug-In . SVG Version: 6.00 Build 0)  -->
<svg version="1.1" id="Layer_1" xmlns="http://www.w3.org/2000/svg" xmlns:xlink="http://www.w3.org/1999/xlink" x="0px" y="0px"
	 viewBox="0 0 500 500" style="enable-background:new 0 0 500 500;" xml:space="preserve">
<style type="text/css">
	.st0{fill:#0071FF;}
</style>
<g>
	<path class="st0" d="M294.5,168.3c-2,0-3.9,0.8-5.3,2.3c-1.4,1.4-2.1,3.3-2.1,5.3l0.5,86.7L208.1,171c-2.1-2.5-5.5-3.4-8.4-2.2
		c-2.9,1.1-4.9,3.9-4.9,7v106.9c0,4.1,3.4,7.5,7.5,7.5s7.5-3.4,7.5-7.5v-86.8l79.6,91.6c2,2.4,5.4,3.3,8.3,2.1
		c2.9-1.1,4.9-3.9,4.9-7l-0.6-107C302,171.6,298.6,168.3,294.5,168.3z"/>
	<path class="st0" d="M295.1,397.4h-85.3v-30.8h85c4.1,0,7.5-3.4,7.5-7.5s-3.4-7.5-7.5-7.5h-92.5c-4.1,0-7.5,3.4-7.5,7.5v45.7
		c0,4.1,3.4,7.5,7.5,7.5h92.8c4.1,0,7.5-3.4,7.5-7.5C302.6,400.7,299.2,397.4,295.1,397.4z"/>
	<path class="st0" d="M203,328.4h91.8c4.1,0,7.5-3.4,7.5-7.5s-3.4-7.5-7.5-7.5H203c-4.1,0-7.5,3.4-7.5,7.5S198.9,328.4,203,328.4z"
		/>
	<path class="st0" d="M378.3,180.4c-13.2-34.6-39.1-62-73-77.1c-33.8-15-71.5-16.1-106.1-2.8c-34.6,13.2-62,39.2-77.1,73.2
		c-17.3,38.7-16.1,82.6,3.3,120.3c10.4,20.3,25.8,37.8,44.7,50.6c1.2,0.8,2.7,1.3,4.3,1.3c2.5,0,4.8-1.2,6.1-3.2
		c1.1-1.6,1.6-3.6,1.2-5.5c-0.4-2-1.5-3.7-3.2-4.9c-16.7-11.4-30.5-27-39.9-45.1c-17.4-33.7-18.5-72.8-3.1-107.4
		c13.8-30.2,38.3-53.4,69.1-65.2c30.9-11.9,64.5-11,94.6,2.5c30.1,13.4,53.3,37.9,65.1,68.8c11.8,30.9,10.8,64.6-2.6,94.8
		c-9.3,20.9-24.1,38.8-42.9,51.6c-1.6,1.1-2.7,2.9-3.1,4.8c-0.4,2,0.1,4,1.2,5.6c1.1,1.6,2.9,2.7,4.8,3.1c2,0.4,3.9-0.1,5.6-1.2
		c21.1-14.5,37.7-34.5,48.1-57.8C390.5,252.5,391.5,214.9,378.3,180.4z"/>
</g>
</svg>
