<?xml version="1.0" encoding="utf-8"?>
<!-- Generator: Adobe Illustrator 25.0.1, SVG Export Plug-In . SVG Version: 6.00 Build 0)  -->
<svg version="1.1" id="Layer_1" xmlns="http://www.w3.org/2000/svg" xmlns:xlink="http://www.w3.org/1999/xlink" x="0px" y="0px"
	 viewBox="0 0 500 500" style="enable-background:new 0 0 500 500;" xml:space="preserve">
<style type="text/css">
	.st0{fill:#0071FF;}
	.st1{fill:#FFFFFF;}
</style>
<rect class="st0" width="500" height="500"/>
<g id="XMLID_15_">
	<g id="LORxpm.tif_4_">
		<g id="XMLID_144_">
			<path id="XMLID_304_" class="st1" d="M219.4,384c-1.9-0.7-3.5-1.4-5.2-2c-2.7-0.9-5.5-1.8-8.2-2.6c-0.6-0.1-1.3,0.6-1.5,0.7
				c-1.6-1.1-3.1-2.2-4.7-3.3c-0.3,0.9-0.6,0.7-0.8,1.5c-3.8-3.1-4.5-4.1-6.1-2.8c-1.9-1.5-3.8-3.1-5.7-4.4c-0.5-0.3-1.4-0.4-2-0.2
				c-2.8,0.7-2.8,0.8-3.5-2.3c-0.9,0.3-1.7,0.6-2.8,0.9c0.1-2.5-1.4-3-3.4-3.4c-0.8-0.1-1.5-1.2-2.1-1.9c-1.3-1.5-2.3-3-4.6-3.4
				c-1.2-0.2-2.4-1.6-3.4-2.7c-1.4-1.6-2.5-3.4-4-4.9c-0.6-0.7-1.8-0.8-2.9-1.3c-0.2-2-1.2-3.3-3.6-3.2c-0.3,0-1-0.5-1-0.8
				c-0.1-2-1.6-2.7-2.9-3.7c-0.9-0.8-1.8-2.2-1.9-3.4c-0.1-2.2-0.9-2.9-3.1-2.3c-0.1-1.6,0.7-3.5-1.7-3.7c-0.2,0-0.4-0.7-0.6-1
				c-1.2-1.6-0.8-4-3.3-4.9c-0.8-0.3-1.1-2.2-1.5-3.3c-1-2.7-3-4.7-4.3-7c-0.9-1.6-3.2-3.1-2-5.7c0.3-0.7-0.8-1.9-1.2-3
				c-1.2-3.3-2.3-6.6-3.7-9.8c-0.7-1.7-2-3.1-2.6-4.8c-0.5-1.5-0.2-3.2-0.5-4.8c-0.8-4.4-1.8-8.8-2.5-13.2c-0.5-3.3-0.6-6.7-0.9-10
				c-0.5-5.4-1.1-10.8-1.5-16.2c-0.1-1.9,0.1-4,0.7-5.9c0.9-2.9,1.5-5.7,1.3-8.7c-0.1-1.5,0.5-3.1,0.9-4.6c1.2-4.1,2.3-8.2,3.8-12.1
				c3.5-9.3,6.8-18.8,12-27.3c2.8-4.7,6.2-9,9.3-13.5c0.9-1.3,1-3.5,2.1-4.2c1.8-1.2,1.5-3.7,4.3-4.6c2.9-1,5.1-4.2,7.6-6.3
				c5.7-4.6,11.3-9.4,17.3-13.7c4.7-3.3,9.9-6.1,15-8.8c2.5-1.4,5.5-2,8.1-3.2c2.7-1.1,5.2-2.4,7.9-3.6c2.8-1.3,5.5-2.8,8.9-2.2
				c1.9,0.3,4.1-0.8,6.2-1.2c4-0.7,8.1-1.1,12.1-1.9c2-0.4,3.9-1.2,6.1-2c1.8,2,6.7,2,8.3-0.2c1.4,0.5,2.7,1.2,4,1.4
				c8.3,1.1,16.7,1.8,25,3.1c3.6,0.6,7.1,1.9,10.5,3.3c7,2.9,14.1,5.8,20.9,9.4c4.9,2.6,9.6,5.8,14,9.3c6,4.9,11.9,10,17.1,15.6
				c5,5.4,9.2,11.5,13.3,17.5c6.3,9.2,10.3,19.6,14.1,30.1c2,5.6,3.1,11.6,4.2,17.5c1.4,8.1,1.7,16.3,1.6,24.4
				c-0.1,6.6-0.5,13.2-1.8,19.6c-1.6,8.1-3.5,16.3-6.4,24.1c-2.6,7.1-6.5,13.7-10.3,20.3c-3,5.2-6.5,10.1-9.9,15.1
				c-2.8,4.3-6.5,7.7-10.4,11.1c-2.7,2.4-5.1,5.1-7.9,7.4c-3.4,2.8-7,5.4-10.7,7.9c-4.4,2.9-8.9,5.8-13.6,8.3
				c-6.4,3.4-12.9,6.5-20.2,7.8c-6.5,1.2-12.9,3-19.4,4.3c-2.5,0.5-5,0.6-7.6,0.9c-4.5,0.4-9,0.9-13.6,1.1c-1.9,0.1-3.9-0.4-5.8-0.5
				c-4.1,0-8.1-1.2-12.1-1.7c-2.2-0.3-4.5-0.2-6.6-1.2C220,383.3,219.4,384,219.4,384z M362.7,237.2c0-0.7,0.1-1.3,0-1.9
				c-0.9-4.2-1.8-8.4-2.9-12.5c-2.6-10.1-6.6-19.7-12.3-28.4c-3.5-5.3-7.7-10.2-11.5-15.4c-5.1-6.9-11.9-12-18.7-17.1
				c-4-3-8.2-5.7-12.7-7.9c-6-3-12.2-5.5-18.5-8c-2.8-1.1-5.9-1.6-8.8-2.3c-5.1-1.2-10.1-2.6-15.3-3.3c-4.1-0.6-8.3-0.2-12.5-0.2
				c-3.9,0-7.7-0.4-11.5,0.1c-5.4,0.7-10.8,1.9-16.1,3.2c-5.2,1.3-10.3,2.6-15.3,4.4c-9.9,3.7-18.8,9.2-27.2,15.6
				c-11,8.3-20.1,18.4-27.6,30c-5.8,9-10.2,18.6-13.8,28.6c-4,11.4-5.7,23.3-6.6,35.2c-0.9,11.8,1,23.5,4.3,34.8
				c2.8,9.7,7.3,18.8,12.4,27.5c0.8,1.3,1.7,1.9,3.3,1.9c5.7-0.1,11.4-0.2,17.1-0.2c12.4,0.1,24.8,0.2,37.1,0.5
				c2.4,0.1,2.3-0.8,2-2.5c-0.3-1.5-0.4-3-0.4-4.5c0.2-4.1,0.7-8.2,0.7-12.4c0-7.9-0.1-15.7-0.5-23.6c-0.2-3.9,0.4-7.9-1.3-11.7
				c-0.3-0.6,0-1.4,0.1-2.1c0.2-1.3,0.8-2.7,0.8-4c0.1-3,0.1-6-0.1-9.1c-0.1-1.6-0.5-3.1-0.6-4.7c0-1.8-1.5-3.8,0.6-5.5
				c2.3-1.9,5.1-2.3,7.3-0.2c1.9,1.7,3.4,3.8,5.1,5.7c2.4,2.7,5,5.3,7.4,8c8.8,9.8,17.6,19.6,26.5,29.3c4.9,5.4,9.9,10.7,14.9,16.1
				c2,2.1,4.1,4.2,6.5,6.7c0.2-1.2,0.4-1.6,0.4-2.1c0-6.1,0-12.2,0-18.3c0-6.7-0.1-13.5-0.2-20.2c-0.1-7.8-0.7-15.5-0.3-23.3
				c0.2-4.4,1.5-5,5.5-3.8c2.1,0.6,4.4,0.7,6.6,0.7c5.5-0.1,10.9-0.5,16.4-0.7c16-0.6,32.1-1.2,48.1-1.9
				C355,237.9,358.7,237.6,362.7,237.2z M152.9,325.9c0.7,1.2,0.9,1.6,1.1,2c5,7.2,10.9,13.4,17.7,18.9c4.9,4,9.9,8.1,15.3,11.2
				c5.9,3.4,12.3,6.2,18.7,8.6c5.3,2,10.9,3.6,16.5,4.7c8.3,1.6,16.8,2.3,25.3,1.8c6-0.4,12-0.7,17.9-1.7c9.9-1.5,19.4-4.6,28.6-8.4
				c4.1-1.7,8-3.8,11.8-6c4.4-2.6,8.9-5,12.7-8.3c6.4-5.4,12.4-11.3,18.3-17.3c6.4-6.5,10.9-14.4,14.9-22.5c3.3-6.6,5.7-13.7,8-20.8
				c4.5-14.1,5.5-28.7,4.2-43.4c-0.1-0.8-0.8-1.9-1.4-2.2c-1.2-0.5-2.7-0.6-4.1-0.7c-3.1,0-6.2,0.1-9.3,0.2
				c-11.6,0.5-23.2,0.9-34.8,1.4c-9.4,0.4-18.9,0.7-28.3,1.1c-1,0-2.1-0.2-2.1,1.5c0.1,4.7,0,9.4,0.2,14.1
				c0.4,10.2,1.1,20.5,1.5,30.7c0.3,7,0.5,14,0.5,21c0,1.4-0.4,3.3-0.9,4.8c-3.3,8.7-14.4,7.1-17.2,3.7c-3-3.6-6.1-7.2-9.1-10.7
				c-0.3-0.4-9.8-10.3-11.6-13c-0.1-0.2-0.6-0.4-0.8-0.3c-1.6,0.3-1.9-0.8-2.4-2c-1.1-2.9-3.4-5-5.9-6.5c-1.4-0.8-2.5-1.2-2.4-3.1
				c0.1-2-2.3-4.6-3.8-4c-1.8,0.7-5.8-6.7-7.8-8.8c-0.4-0.4-0.8-1-1.3-1.2c-0.9-0.4-3.5-3-3.9-3.9c-0.9-2.1-1.9-4.1-2.8-6.1
				c-0.1-0.2-0.5-0.2-1.2-0.5c0,1.1,0,1.9,0,2.7c0.2,3.8,0.4,7.6,0.6,11.4c0.3,6.3,0.7,12.5,0.9,18.8c0.4,10,1.7,20,0.2,30.1
				c-0.5,3.6-1.9,5.2-5.2,3.8c-3.6-1.6-7.3-1-10.9-1.2c-5.5-0.4-11,0.2-16.5,0.3c-1.7,0-3.3-0.5-5-0.5c-2,0-4.1,0.5-6.1,0.6
				C166.4,325.9,160,325.9,152.9,325.9z"/>
			<path id="XMLID_182_" class="st1" d="M206.1,384.5c0.6-0.3,1.6-0.8,2.7-1.3c1.8-0.7,3.1,0.2,4.7,1.2c3.3,2.1,3.5,3.9,3.3,8
				c-0.4,1.1-0.3,2.7-0.1,3.9c5.3,0,10.3-0.1,15.3,0c5,0.1,10.1,0.4,15.1,0.4c5,0,9.9-0.1,14.9-0.4c1.8-0.1,3.1,0.5,5-0.2
				c2.3,0.6,3.5,0.2,5.7-0.5c0.7-0.2,1.5,0,2.3-0.1c2.4-0.2,4.8-0.3,7.1-0.8c1.8-0.4,3.2,0.3,3.2,2.1c0.1,3.8-0.4,4.5-3.9,5.6
				c-0.3,0.1-0.6,0-0.9,0c-3.5-0.2-6.9-0.5-10.4-0.6c-4.3-0.1-8.5-0.1-12.8,0c-5.2,0.1-10.4,0.1-15.6,0.3c-3.2,0.1-6.5,0.6-9.7,0.9
				c-0.3,0-0.7-0.2-1-0.4c-1.8-0.8-3.6-1.3-5,0.5c-3.3-1.4-3.3-1.4-3.9,0.3c-0.9-0.3-1.9-0.9-2.5-0.7c-0.8,0.3-1.7,1.4-1.7,2.2
				c0,3.3,0.3,6.6,0.5,9.9c0.2,2.4,0.4,4.8,0.7,7.4c3.3,0,6.9,0,10.5,0c6.7-0.1,13.5-0.2,20.2-0.3c8.6,0,17.1,0,25.7,0.1
				c2.8,0,5.5,0,8.3,0.3c4.3,0.4,7.5,6,5.4,9.6c-0.4,0.7-1.5,1.6-2.3,1.6c-6.1,0.1-12.2,0.1-18.4,0.1c-10.2,0-20.5,0-30.7,0
				c-6.1,0-12.2,0-18.3,0.1c-3.2,0.1-6.3,0.4-9.5,0.7c-3.1,0.3-4.3-1.2-3.2-4.1c0.2-0.4,0.3-0.9,0.3-1.3c-0.3-6.2-0.7-12.5-0.8-18.7
				C206.1,402,206.2,393.5,206.1,384.5z"/>
			<path id="XMLID_166_" class="st1" d="M260.1,353.7c-7.9,0-15.9,0-23.8,0c-7.6,0-15.3,0.1-22.9,0.2c-0.8,0-1.6,0.1-2.3,0.3
				c-2.5,0.6-4.5-0.1-5.3-2.6c-0.4-1.3,0.6-3,1.2-4.5c0.3-0.8,0.6-1.6,0.9-2.4c1.2-2.6,2.9-2.4,4.9-2.4c6.4,0,12.8-0.2,19.2-0.3
				c5.7,0,11.4,0.2,17.1,0.2c6.6,0,13.1-0.1,19.7-0.1c4.2,0,8.5-0.2,12.7,0.1c1.4,0.1,3.1,1.1,4,2.2c1.3,1.6,2.1,3.6,2.8,5.6
				c0.2,0.6-0.5,2.1-1,2.3c-2.9,0.7-5.8,1.5-8.8,1.6c-6.1,0.2-12.2,0.1-18.3,0.1C260.1,353.8,260.1,353.7,260.1,353.7z"/>
		</g>
	</g>
	<g id="XMLID_17_">
		<path id="XMLID_60_" class="st1" d="M70.1,196.1c0-0.5,0.1-0.9,0.4-1.4c3.4-8.7,10.1-12.4,21-8.5c10.3,3.7,15.2,10.6,12.1,18.9
			c-0.2,0.6-0.4,1.1-0.7,1.5c-0.4,0.5-1,0.7-2,0.4c-3.5-1-9.1-3-14.2-4.7c-5.3-1.8-10.5-3.3-15.7-5.2
			C70.3,196.9,70.1,196.5,70.1,196.1z M101,204.2c3.3-5.7-2.2-12.6-10.6-15.5c-8-2.8-15.5-0.7-17.1,6.4c4.7,1.6,9.4,3.1,14.1,4.6
			C91.8,201.2,96.6,202.8,101,204.2z"/>
		<path id="XMLID_57_" class="st1" d="M103.3,168.7l-13.5-8.2c-0.4-0.2-2.1-1.2-2.5-1.5c-0.5-0.3-1-1.1-0.4-1.9
			c2.1-3.1,5.9-9.9,6.9-11c0.2-0.3,0.9-0.2,1.3,0c1,0.6,0.7,1.4,0.3,2.1c-0.7,1.2-4.5,7.2-5.3,8.4l-0.5,0.7l11.3,6.8
			c0,0,4-6.3,5.2-8.4c0,0,0.3-0.6,0.5-0.9c0.3-0.4,1.1-0.3,1.3-0.1c0.8,0.5,0.9,1.2,0.5,1.9c-0.5,1.1-5.4,8.9-5.4,8.9l7,4.3l4,2.5
			c0.9,0.5,1,0.3,1.4-0.3c1.3-2.1,3.2-5.1,3.9-6.2l2-3.4c0.3-0.6,1.2-0.4,1.6-0.2c0.7,0.5,0.9,1,0.4,1.8c-2.3,3.9-4.1,6.8-6.5,10.6
			c-0.6,1-1.6,1.6-2.7,1L103.3,168.7z"/>
		<path id="XMLID_54_" class="st1" d="M123.3,121.2c-0.3,0.7-1.1,1.1-1.9,0.5c-1.9-1.3-3.9-1.1-5.5,0.5c-2.7,2.6-2.5,5.4-0.8,7.1
			c1.8,1.7,5.2,2,10.5,1.8c8-0.2,11.3,0.4,14.3,3.5c3.8,3.9,2.7,8.2-0.6,11.6c-3.3,3.4-8.5,3.6-11.4,0.6c-0.7-0.6-0.6-1.4-0.1-2
			c0.4-0.5,1.3-0.8,2-0.2c2.3,2,5.3,2,7.7-0.3c2.6-2.6,2.8-5.4,0.4-7.7c-2.8-2.8-5.9-2.8-12.1-2.7c-6.1,0.1-10.1-0.1-12.5-2.5
			c-2.5-2.5-3.5-6.6,0.7-10.8c2.6-2.7,5.7-3.5,9.1-1.3C123.6,119.8,123.7,120.6,123.3,121.2z"/>
		<path id="XMLID_47_" class="st1" d="M157.1,129.7c-0.9,0.5-1.5,0.2-1.8-0.3c-0.3-0.5-0.1-1.2,0.6-1.7c1-0.7,1.6-1.1,2.5-1.7
			c-5.2-7.8-10.7-16.5-16.5-24.5l-2.6,1.7c-0.9,0.5-1.5,0.2-1.9-0.3c-0.3-0.5-0.3-1.3,0.5-1.9c2.7-1.8,5.5-3.6,8.2-5.4
			c0.7-0.2,1.3,0,1.7,0.4c0.4,0.5,0.3,1.2-0.3,1.8c-1.1,0.7-2.1,1.4-3.2,2.1c1.1,1.5,2.3,3.4,3,4.5l13.4,20.1c1.1-0.8,1.9-1.3,3.1-2
			c0.9-0.3,1.6,0.1,1.8,0.6c0.1,0.4,0,0.9-0.5,1.4L157.1,129.7z"/>
		<path id="XMLID_44_" class="st1" d="M184,97.4c-0.7,0.4-1.4,0-1.7-0.8c-0.2-0.6-0.2-1.3,0.6-1.7c1.4-0.8,3.7-1.5,5.5-2.4
			c1-0.5,1.9-0.7,2.7,0.8c1.4,2.9,3.4,8,5.1,12.2c0.2,0.6,0.3,1.2,0,2c-0.8,1.8-3.6,3.9-5.4,4.6c-6.9,2.9-13.9-2.1-18-11.4
			c-4-9.1-3.6-18.1,3.7-21.5c2.4-1.1,5.6-1.5,6.9-0.7c0.5,0.4,0.8,0.9,0.7,1.4c-0.1,0.7-0.7,1.3-1.4,1.1c-1-0.2-3.3-0.1-4.8,0.5
			c-6.2,2.8-5.5,11.2-2.4,18.3c3.9,8.8,9.5,11.8,14.2,9.8c1.3-0.6,3.5-2,3.8-3.2c-1.4-3.5-2.8-6.7-4.2-10.1
			c-0.3-0.8-0.4-1.1-1.4-0.6L184,97.4z"/>
		<path id="XMLID_35_" class="st1" d="M207.2,69.4c0.5-0.3,1.2-0.3,1.7,0.3c4.1,4.9,7.8,9.4,11.6,13.8c2.9,3.4,5.5,6.9,8.5,10.4
			c-2.7-11.9-4.9-22.4-6-26.7c-0.1-0.9,0.3-1.6,1-1.8c0.7-0.2,1.7,0.3,1.8,1.1c0.1,0.8,1,4.7,1.2,5.9c1.8,8.1,3.2,13.9,5.7,25
			c0.3,1.1,0.6,2.5-0.9,2.8c-0.7,0.2-1.2-0.2-1.7-1.2c-3-3.4-6.5-8-10.5-12.6c-3.1-3.7-6-6.8-8.7-10.3c0.9,3.1,2,7.2,2.8,10.1
			c1.7,6.8,2.5,9.9,3.9,15.7c0.2,0.9-0.4,1.6-1.1,1.7c-0.7,0.1-1.4-0.1-1.6-1c-1.1-5.7-2.3-9.7-3.7-15.3c-1.3-5-3-11.4-4.5-16.6
			C206.4,70.2,206.7,69.6,207.2,69.4z"/>
		<path id="XMLID_31_" class="st1" d="M281.2,66.8c0.2-0.9,0.4-2.1,1.7-1.8c1.8,0.5,4.1,1.2,6.7,2.4c3.7,1.7,6,5.2,5.3,10
			c-0.6,4-3.7,7.5-10.4,8.1c1.8,5.1,3.6,9.4,5.8,15.3c0.2,0.7,0.1,1.2-0.2,1.5c-0.5,0.6-1.6,0.5-2.1-0.6c-2.2-5.2-4.4-10.7-6.4-16.3
			c-0.4,0-0.8,0-1.2-0.1c-1.2,6-2.3,11.3-2.8,13.4c-0.2,0.8-0.9,1.2-1.5,1.1c-0.7-0.1-1.4-0.7-1.2-1.7C276.9,88,279,78.4,281.2,66.8
			z M280.9,82.8c7.7,0.6,10.3-2.1,11.1-5.9c0.6-2.7-0.5-5.9-4.6-7.7c-1-0.4-2.2-0.9-3.5-1.3C282.9,72.3,281.9,77.7,280.9,82.8z"/>
		<path id="XMLID_30_" class="st1" d="M312.9,94.5l6.5-14.4c0.2-0.4,1-2.2,1.2-2.6c0.2-0.5,1-1.1,1.8-0.7c3.4,1.6,10.6,4.7,11.8,5.5
			c0.3,0.2,0.3,0.9,0.2,1.3c-0.5,1.1-1.3,0.9-2,0.6c-1.3-0.6-7.7-3.6-9-4.2l-0.8-0.4l-5.3,12.1c0,0,6.8,3.2,9,4.1c0,0,0.7,0.2,1,0.4
			c0.5,0.3,0.4,1,0.2,1.3c-0.4,0.9-1.1,1.1-1.8,0.8c-1.1-0.4-9.6-4.3-9.6-4.3l-3.4,7.4l-1.9,4.2c-0.4,0.9-0.2,1,0.5,1.3
			c2.2,1,5.4,2.5,6.7,3.1l3.6,1.5c0.7,0.3,0.6,1.2,0.4,1.5c-0.4,0.7-0.9,1-1.7,0.6c-4.2-1.8-7.2-3.3-11.4-5.2
			c-1.1-0.5-1.8-1.4-1.3-2.5L312.9,94.5z"/>
		<path id="XMLID_28_" class="st1" d="M367,107.2c-0.7,0.3-1.5,0.2-1.6-0.6c-0.2-1.3-1.4-2.8-2.5-3.7c-5.4-4-11.5,1.3-16,7.5
			c-5.6,7.8-6.3,13.5-2.6,16.2c1.6,1.2,3,1.9,5.1,1.6c1-0.1,1.5,0.6,1.5,1.3c0,0.6-0.5,1.3-1.4,1.5c-2.1,0.4-4.3-0.3-6.9-2.2
			c-5.7-4.2-4-12.1,2-20.3c5.9-8.1,13.2-12.8,19.6-8c2,1.5,3.5,3.5,3.7,5.1C368,106.4,367.5,106.9,367,107.2z"/>
		<path id="XMLID_27_" class="st1" d="M360.6,144c-0.6-0.8-0.4-1.5,0-1.9c0.4-0.3,1.1-0.3,1.8,0.3c0.8,0.9,1.3,1.4,2.1,2.2
			c7-6.3,14.7-13,21.8-19.9l-2.1-2.3c-0.6-0.8-0.4-1.5,0.1-1.9c0.5-0.4,1.2-0.5,1.9,0.2c2.2,2.4,4.4,4.9,6.6,7.3
			c0.3,0.7,0.2,1.3-0.1,1.7c-0.4,0.4-1.1,0.5-1.9,0c-0.9-0.9-1.7-1.8-2.5-2.8c-1.3,1.3-3,2.8-4,3.7l-17.8,16.3c1,1,1.5,1.7,2.5,2.7
			c0.4,0.9,0.2,1.6-0.3,1.9c-0.4,0.2-0.9,0.1-1.5-0.3L360.6,144z"/>
		<path id="XMLID_19_" class="st1" d="M405.7,147.6c0,0,1.1-1,2,0.4c1.3,2,3,4.9,3.6,8c0.7,3.8-1.1,7.6-4.9,10.2
			c-6.5,4.4-13.6,1.7-17.7-4.7l-8.7,5.3c-0.7,0.7-1.7,0.5-2.2-0.2c-0.3-0.4-0.4-0.8-0.3-1.4c0.2-0.4,0.5-0.7,0.8-0.9
			C388.5,158.2,399.3,151.7,405.7,147.6z M391.1,160c3.1,4.9,8.8,6.9,13.5,3.8c3.1-2,4.3-4.8,3.9-7.7c-0.2-1.5-1.6-4.2-2.3-5.4
			L391.1,160z"/>
		<path id="XMLID_18_" class="st1" d="M406.7,188.4l14.8-5.4c0.4-0.2,2.2-0.9,2.7-1c0.6-0.2,1.5-0.1,1.8,0.9
			c1.2,3.6,4.1,10.8,4.3,12.3c0.1,0.4-0.4,0.9-0.8,1c-1.2,0.4-1.6-0.3-1.8-1c-0.5-1.3-2.9-8-3.3-9.3l-0.3-0.8l-12.3,4.7
			c0,0,2.5,7.1,3.4,9.3c0,0,0.3,0.6,0.4,1c0.1,0.5-0.5,1-0.8,1.1c-0.9,0.3-1.5,0-1.8-0.7c-0.5-1.1-3.6-9.8-3.6-9.8l-7.7,2.8
			l-4.4,1.6c-1,0.3-0.8,0.6-0.6,1.2c0.8,2.3,2,5.6,2.5,6.9l1.4,3.6c0.3,0.7-0.4,1.2-0.8,1.3c-0.8,0.2-1.3,0.1-1.6-0.8
			c-1.7-4.2-2.7-7.5-4.3-11.7c-0.4-1.2-0.2-2.3,0.9-2.7L406.7,188.4z"/>
	</g>
</g>
</svg>
